<svg class="memory-viz-diagram" preserveAspectRatio="xMinYMin meet" style="width:100%;height:100%" width="477.2" height="360" viewBox="0 0 477.2 360" xmlns="http://www.w3.org/2000/svg"><title>Python memory model diagram showing stack frames and objects</title><style>
        .memory-viz-diagram {
        --fade-text-color: rgb(0, 0, 0);
        --hide-text-color: white;

        --highlight-value-text-color: rgb(27, 14, 139);
        --highlight-id-text-color: rgb(150, 100, 28);

        --highlight-box-fill: yellow;
        --highlight-box-line-color: rgb(0, 0, 0);

        --fade-box-fill: rgb(247, 247, 247);
        --fade-box-line-color: gray;

        --hide-box-fill: white;

        --primitive-value-color: rgb(27, 14, 139);
        --id-text-color: rgb(150, 100, 28);
        --default-font-size: 20px;

        --highlight-object-fill: rgba(255, 255, 0, 0.6);
    }

        .memory-viz-diagram text {
            font-family: Consolas, Courier;
            font-size: 20px;
        }
        .memory-viz-diagram text.default {
            fill: rgb(0, 0, 0);
            text-anchor: middle;
        }
        .memory-viz-diagram text.attribute {
            fill: rgb(27, 14, 139);
            text-anchor: start;
        }
        .memory-viz-diagram text.variable {
            fill: rgb(0, 0, 0);
            text-anchor: start;
        }
        .memory-viz-diagram text.id {
            cursor: pointer;
            fill: rgb(150, 100, 28);
            text-anchor: middle;
        }
        .memory-viz-diagram text.type {
            fill: rgb(27, 14, 139);
            text-anchor: middle;
        }
        .memory-viz-diagram text.value {
            fill: rgb(27, 14, 139);
            text-anchor: middle;
        }
        .memory-viz-diagram path {
            stroke: rgb(0, 0, 0);
        }
        .memory-viz-diagram .highlighted path {
            fill: var(--highlight-object-fill) !important;
        }
    </style><g><title>Group of 1 stack frames</title><g role="graphics-object"><title>Stack frame for __main__</title><g id="object-0"><path d="M26.814957173015728 24.1623937033199 L192.1728031435305 23.808943127619543 L189.6886052281546 249.25992837447143 L26.762125276888764 248.4789289212974" stroke="none" stroke-width="0" fill="none"/><path d="M25.21621535564381 23.17911754182785 C74.70550165169139 26.32330188190247, 123.17945059965241 27.588395237046626, 192.59378861615815 23.551230502382012 M25.276988247344324 24.31243728987169 C61.92242139788701 25.937209554504044, 96.8825979349357 25.589040222651715, 191.4602924283802 24.047418946894453 M189.3058011679916 23.95520463922817 C191.94092598016954 87.03514419194438, 191.82066947704578 145.86281138842782, 192.58254159371785 248.55240953372336 M190.9460736138307 24.508233833417215 C189.5345236639491 75.55707845586889, 189.24863078832593 125.22916030814521, 190.64054949796957 249.6955409853861 M190.04641601311636 249.75292028023728 C143.62902378486174 251.80688421564102, 95.97982249564988 250.2623050303219, 23.25152231358471 251.53605956894424 M191.79291452085306 249.55272429078326 C142.7709956213671 248.5168992374613, 94.7680807817224 247.76333915592252, 25.056012748638413 250.8153363287806 M24.28130433483335 248.5342359719296 C24.1386962560435 172.48598365148823, 24.976677212178394 95.49025172240387, 23.879889820668673 24.303744697218512 M25.025407621387775 250.11776987668827 C23.971074301104725 159.30194524470764, 23.733542751282293 70.35138506007878, 24.338085518950734 25.816979742646847" stroke="rgb(0, 0, 0)" stroke-width="1" fill="none"/></g><g><path d="M25.756961431263505 25.691494298696025 L131.31023815257868 26.717746172944832 L129.61555640643942 74.24809433038472 L26.9127033109257 73.05671773507781" stroke="none" stroke-width="0" fill="none"/><path d="M23.91349576173553 23.299310961037477 C47.38492173134707 24.559672801110807, 69.037258385977 25.177638888243777, 130.93636323429246 23.248753473445838 M25.309031425718484 24.292029430163844 C60.233752432311285 24.447071191347828, 95.64083340169769 24.399578494516483, 130.75138437294632 25.267002504722488 M129.53192887538793 25.29795442999069 C129.29516872860825 44.12665175486865, 132.75343769314003 61.63368274750116, 130.96523127840288 74.43406940438511 M130.82671139171677 25.339500976570964 C129.63834275359335 36.48615300760684, 130.8645605977108 46.88753239989232, 131.77911503528824 75.21217572044999 M131.54605515903495 73.48389663491253 C93.09894686759112 74.68071881549301, 50.98118421003557 75.19793651201681, 26.488551656447832 76.36859540988482 M130.66311723517032 74.00204766922324 C103.60989674336737 76.36023022499504, 73.63787875323297 74.84776661362083, 24.665337918919402 75.66051448869592 M24.44201556222097 74.29608102184027 C23.88126205228685 56.1974897093896, 24.320944631176012 40.89074460792001, 23.699748942560024 23.915768893087048 M24.306107579039924 75.76517716597449 C24.650268636891422 63.36593379616733, 24.25986488820721 50.911414477311624, 24.308414212429238 25.460810739165993" stroke="rgb(0, 0, 0)" stroke-width="1" fill="none"/><text x="78" y="55" class="type" aria-describedby="desc-0">__main__<title id="desc-0">Function name</title></text></g><text x="50" y="130" class="variable" aria-describedby="desc-1">s<title id="desc-1">Parameter name</title></text><g><path d="M115.60496878864184 101.96369348911547 L173.9163569840544 99.63152882341834 L174.62460933106877 148.34097950580744 L115.46269842929547 151.8735188239506" stroke="none" stroke-width="0" fill="none"/><path d="M115.41503245400368 100.74776317853363 C130.37380065364607 100.9875248378146, 142.7130327925433 97.62976090858108, 175.8611915311449 101.95160294865676 M116.82338228973876 99.38672722310856 C138.51097982652269 100.65794318740099, 159.24849811312492 99.82399369702128, 173.26420503656337 100.55524412635413 M174.84832036583745 101.09745327007545 C174.1981870286074 109.76838171306484, 173.00637969243462 124.03226538590238, 172.4265382586139 149.24027659557748 M174.50132122799397 100.50290693592665 C175.35591208521487 117.21875653388912, 174.84223736057538 132.59571047245726, 173.64480851733364 150.6442715095261 M175.76737133094247 149.15257879448214 C160.74643688273676 151.07404552848698, 143.51722884865254 148.52100432492583, 116.52171215387966 150.7709256377349 M174.4327842196827 149.53270619533117 C152.42280035567407 150.39504069240965, 131.3567333296292 148.8588816401809, 116.58486995533963 149.5054928969281 M116.23668011813756 151.75338045288956 C114.50015836462865 135.96450495808784, 117.8585794579102 125.42832418340441, 116.74093305682753 100.7440802670905 M116.67421016969392 150.084392785234 C115.80670529959787 130.11233566883007, 115.46318678364746 110.55923585733109, 116.5509205533425 99.2615057072229" stroke="rgb(0, 0, 0)" stroke-width="1" fill="none"/><text x="145" y="130" class="id" aria-describedby="desc-2">id19<title id="desc-2">Parameter value</title></text></g><text x="50" y="205" class="variable" aria-describedby="desc-3">x<title id="desc-3">Parameter name</title></text><g><path d="M116.5198490559185 173.87155946441524 L173.362537744812 174.1399994641652 L174.07764463730743 225.8616592793909 L117.08199642390701 224.6760287757367" stroke="none" stroke-width="0" fill="none"/><path d="M116.65489193504072 175.92274614985666 C129.96904935352455 175.05623365429923, 149.07257741872917 174.16983915192554, 172.14135538042726 176.93145066121153 M116.51343318909746 174.50490082262633 C136.92723908155176 174.7560114940007, 156.43402285448096 175.1350004862921, 174.2711495095522 174.7046238686703 M175.26772589813737 175.37371040226486 C174.011090238483 191.16209836513707, 173.33757409778875 211.3421526782639, 173.30538249823752 225.2439577614074 M174.50033977813862 175.3622099530001 C174.21252502121064 188.43465092683212, 174.2318847562222 202.5122406185589, 173.54952190429677 225.82273692919497 M172.30433820167528 223.45083658772742 C151.36085736836492 225.43040331247138, 131.59545483970055 224.42121521524766, 115.48750565014252 225.6759651721173 M173.31043345034712 225.84932666920764 C162.41980613403985 226.39136954821274, 149.0706337591964 226.53371221289805, 116.18756089672428 225.81392873805694 M115.33140845998412 226.52788666878655 C115.07914666346602 204.11698224477942, 115.37248703608891 185.36875381171922, 116.33793510446355 173.84316500500154 M116.41310420311217 225.53458161190576 C116.42387675189883 206.68479281361653, 115.77894380743625 188.8893290228116, 116.80867032584828 174.4533387358443" stroke="rgb(0, 0, 0)" stroke-width="1" fill="none"/><text x="145" y="205" class="id" aria-describedby="desc-4">id13<title id="desc-4">Parameter value</title></text></g></g></g><g><title>Group of 2 objects</title><g role="graphics-object"><title>Str id19 with value "David is cool!"</title><g><path d="M215.21034155997245 25.717950209593983 L452.8307503149919 25.03323770975294 L452.7263440829089 153.2392111658129 L217.38699791979454 153.60434052562252" stroke="none" stroke-width="0" fill="none"/><path d="M214.8702955669201 24.29156987376746 C293.9693175188348 22.681891198829735, 374.4511535369492 24.394377108058404, 453.7580596410194 25.969042480691297 M216.59713443076197 25.23928316557834 C306.27811216852365 25.96977413421383, 397.2573614660102 26.252785526500197, 452.65015278771375 24.700651627187842 M453.8448304424212 23.8105085624215 C453.59069915164037 60.089982446440196, 453.4589684420583 91.71613274966921, 451.27905131970704 156.34289502099838 M453.00867517259144 25.03181481508366 C450.93478903397516 57.91502159169467, 451.4205100163094 92.59463551062697, 452.9153245447219 155.80743069121522 M451.44148810282235 155.95116780030932 C389.30594370156933 153.82939673822415, 327.56875881302426 152.3577556102502, 217.18376150888352 155.59926845130667 M453.02323389623814 155.13585325669627 C380.27223340310894 153.39062518896029, 308.5094840234124 153.81270932276675, 215.61390901291935 155.21976004746435 M216.1129572186284 156.44412894605892 C215.72812849746663 110.17098430764932, 215.68386941070565 69.37104275822934, 216.95764129364747 25.5714939768647 M216.59154911399386 154.54072333704778 C216.59375136646221 116.19237823518336, 215.9385889562347 78.16682061176931, 215.27426292457923 24.682107656870034" stroke="rgb(0, 0, 0)" stroke-width="1" fill="none"/></g><g id="object-1" data-memory-viz-object-id="19"><path d="M222.16059704242636 30.79171061651798 L445.84664683372534 30.954764963016903 L446.0318108757126 148.7504482312347 L221.88051339529173 148.6875112972801" stroke="none" stroke-width="0" fill="var(--highlight-box-fill)"/><path d="M222.00744951946126 30.887129748254612 C289.41239993603574 30.945465492514856, 356.53406341341105 30.88862876829536, 446.27879351889106 31.172174894761323 M221.947752230337 31.039869425200195 C280.5773610866737 30.879669497692493, 339.0414763124885 30.966133350634863, 446.1900593760493 31.101106628541686 M446.2879711673171 31.275484386425614 C445.9676333540478 65.81864069589827, 445.9564583085805 100.32656801334088, 446.3797597712773 149.09917766250803 M446.27859216216564 30.993924554432372 C446.54199824968526 57.32432426566269, 446.4263198067318 84.03206193705616, 446.0251947448938 149.01037836869827 M446.3425441893438 148.87770706043364 C393.64056998432807 149.28749332539894, 340.3683574169702 149.15634256844643, 222.2791965089078 149.05473962370186 M446.3711385523078 148.95812981091055 C379.1933695472804 149.13153474802488, 311.9799499741978 149.20798984845263, 222.13409899372706 149.1519031007792 M222.39371075424876 148.83499551490584 C221.5568007382677 115.80989952902745, 222.18526030392002 83.29079745570041, 221.60880276895693 30.601899758163466 M221.81219389360822 149.17773931336544 C222.34300937018298 106.79217817434525, 222.10325213341258 64.426861732331, 222.08412195638502 30.821253397575273" stroke="var(--highlight-box-line-color)" stroke-width="4" fill="none"/></g><g><path d="M221.7373519091958 31.35513659669312 L284.6403313244468 31.065636745193594 L285.0694276868612 81.35389592127243 L222.28937072588823 81.26180190979613" stroke="none" stroke-width="0" fill="none"/><path d="M222.2641497742959 30.601046438410044 C237.40860387440412 30.890397290105174, 252.91059336534832 30.639233972920866, 284.4425573266034 30.700957695028706 M221.87480342814422 30.87558879938775 C241.6196570722236 31.215174656817638, 261.19107017287024 31.095188073397733, 284.7900954789823 30.902604640563844 M285.14592955178534 31.181701667965353 C284.7413722044709 43.22316755575309, 285.10785117277686 56.47009488510032, 284.574317083187 81.11880001783466 M284.8196274155283 31.102034942675015 C284.9412984974377 45.87679303582227, 284.65699907384925 60.47096159378065, 284.89558146188205 80.93114365766404 M284.6225895890963 80.97799588177554 C265.5323569740029 80.69667655557137, 246.06199549613254 80.91287435785819, 221.76629586711053 81.24622416346139 M284.6820938282855 80.90490346490539 C267.539848586511 81.16407151923283, 250.52325695598563 81.16314719951113, 222.1588419278189 81.11705677332903 M222.2963126250584 80.87106291282733 C221.84188501131362 69.5585511348005, 221.87433864582812 57.75360545301575, 221.85502843261895 30.69131065522695 M221.9093530903765 81.15730523009745 C222.03276573555266 68.59754141203653, 221.8837460307615 56.00801496234433, 222.11349763495213 31.107171221065975" stroke="var(--highlight-box-line-color)" stroke-width="4" fill="none"/><text x="253.4" y="61" style="font-weight:bolder; font-size:22px; fill:var(--highlight-id-text-color); " class="id" aria-describedby="desc-5">id19<title id="desc-5">Object id</title></text></g><g><path d="M386.27340662538654 31.26702131902319 L446.0241927168141 30.69107680913725 L446.07689914778365 81.25794835955251 L385.871586667363 80.88054062040574" stroke="none" stroke-width="0" fill="none"/><path d="M386.4919937549921 30.670817985959644 C404.09865363655774 31.00681668677365, 421.71621956086364 31.05502153237549, 445.9768040812175 30.798105106153773 M386.0532493136379 31.14166521520367 C401.98273957770897 31.167529491955715, 417.7729845505995 31.06661862811719, 446.11738219808296 30.858331108217083 M446.1180650415346 31.374484340544043 C446.3057272731148 47.418873836746506, 446.45623883678047 64.286180702039, 446.08975423824825 80.76242457659332 M446.18917487034906 30.934460191749157 C446.18495978216185 44.40061062990659, 446.03636057612346 57.576966044727435, 446.013885005969 81.022765209148 M445.97609201033134 80.98691816111798 C426.7657070723532 81.16765580597296, 406.72313105371546 80.71849370537007, 386.44752276575684 80.70773582228213 M446.2402541954034 80.97282615816755 C424.7990695787117 81.14224987365328, 402.98988858979396 81.21971637453223, 386.27221609806463 81.19235446663957 M386.32367043659343 81.08144418808529 C385.9460423784967 61.99569551624555, 386.3080476418723 42.41086613155371, 386.4822900543291 30.633376147500414 M386.3338591657442 81.07817039570294 C386.2943946485445 68.16769414318873, 386.3069253283557 55.51840987630309, 386.35578094647167 30.88335589656568" stroke="var(--highlight-box-line-color)" stroke-width="4" fill="none"/><text x="416.2" y="61" style="font-weight:bolder; font-size:22px; fill:var(--highlight-value-text-color); " class="type" aria-describedby="desc-6">str<title id="desc-6">Object type</title></text></g><text x="334.1" y="115" style="font-weight:bolder; font-size:22px; fill:var(--highlight-value-text-color); " class="value" aria-describedby="desc-7">"David is cool!"<title id="desc-7">Value</title></text></g><g role="graphics-object"><title>Int id13 with value 7</title><g><path d="M217.54693043590677 179.57191766843056 L414.3315050949861 180.8530339136855 L416.3524294889148 308.88422255311997 L217.9168373731959 308.1273440310936" stroke="none" stroke-width="0" fill="none"/><path d="M217.01815102479833 178.51618513422017 C261.3317644831117 181.4219344439166, 309.5168316518149 181.8348193953485, 417.7776014530899 180.38083034026806 M215.84291304028486 179.54004515866723 C293.84843386554337 180.69933033212303, 373.69852985413064 179.91199482610958, 415.8947342274491 180.07369546418056 M416.034054013807 178.49269514030544 C417.101709787425 213.06811247327963, 417.8333547122072 248.8128690978351, 415.835017773324 308.8171957177132 M416.1577350486035 180.41235527382136 C415.0833063542668 217.57481244958504, 416.328502553034 254.78119963608466, 415.60251252705143 309.2538164736907 M416.40381861374044 309.8424589186745 C341.87222279957075 311.45583699031556, 266.4985855346179 311.62521759533746, 215.56676895173058 308.28078850079635 M416.66669866628376 310.6577726988209 C355.7558828001652 310.7992617633925, 294.63447336296093 309.77045818837627, 216.55735232582913 310.78028342288127 M217.84588506181942 310.1877130691043 C214.48505323144295 280.68589413869387, 214.31529558249264 252.14640232895852, 217.38665593754197 181.7642297617174 M215.57601671632634 309.9498190853328 C215.71772329561207 280.7084221091872, 215.74464669605396 250.51173094739266, 215.85382714308238 180.62230109415898" stroke="rgb(0, 0, 0)" stroke-width="1" fill="none"/></g><g id="object-2" data-memory-viz-object-id="13"><path d="M220.02075951940782 185.5990338090187 L411.6486971648918 185.9703545305592 L409.3119591556706 303.11012383341745 L222.26021982051395 303.9414747579304" stroke="none" stroke-width="0" fill="none"/><path d="M223.921513038123 185.3225228970387 C259.7538311930538 188.14509315508843, 296.7158237318322 186.50493650711874, 408.004771839623 184.40622059360712 M222.0781070211237 186.6025291752716 C266.10198918618937 184.27877469820112, 310.4330849614186 184.86738800500675, 409.24907580702063 186.3841044337076 M409.0755611800297 184.73567456290684 C408.21312302343847 210.2006181641906, 407.88682347205196 237.2702341321442, 409.56943998858094 304.3326008579489 M410.2996798324862 186.62457754736687 C410.9435924559939 227.61063703245742, 409.14182881399915 267.9224811222491, 410.5965104815014 304.8648463921286 M408.58204830569 302.6270825624069 C363.8959005596536 303.79867911808265, 320.30603751657236 302.20580646869865, 223.38633326174897 302.94536395926224 M410.24104589898906 304.291552321877 C362.02808964744713 301.90636110090816, 315.6601385837775 303.1709747921948, 222.92049839875574 303.77424195409884 M221.287480677973 302.95155636227474 C222.78192066419788 265.67066074300277, 219.70575547068958 229.53210419055773, 221.12090286355243 184.7161281531539 M222.38781799494544 304.40232739708745 C222.69634066424902 277.7466614965219, 222.94486659911735 250.7512251430549, 221.58662922121331 186.15915355815514" stroke="rgb(0, 0, 0)" stroke-width="1" fill="none"/></g><g><path d="M223.01002391777917 186.02407622727523 L280.8818418856132 185.76376523283912 L281.50932462520353 236.67388187972873 L221.1228177778284 236.16815061540055" stroke="none" stroke-width="0" fill="none"/><path d="M222.5961100829637 184.59441505700977 C246.78387737639287 187.88682445698242, 266.8118573795264 184.67691298532935, 283.92673157781513 187.33287392614673 M221.9891563573132 185.2045945956486 C242.25472856331152 186.58036097504322, 262.60115244116616 185.7637970557938, 281.38141963662457 186.60684742517725 M280.3102846266154 187.4724789429235 C281.7150561777573 201.3060687786894, 281.1500264982599 220.59193519327886, 280.08098967787663 235.02250994394268 M282.8410399664941 185.9230283940803 C282.1295704397537 202.6421989684127, 281.756619597543 220.4034616893113, 282.90041038188946 236.85997018639162 M283.49879598913435 235.69200601277876 C265.19824874310905 234.19420156319873, 247.97778653862585 235.4358823579672, 221.1524217032194 234.01494650387562 M282.34168423915054 236.35643483315567 C262.6706675223888 235.42048940400417, 242.7937423172335 236.32864302086003, 221.19270860692518 235.12670445678935 M222.5442655907164 236.89002745147909 C221.93515941758218 222.78640643003948, 222.30767466006378 210.7340746767847, 223.19929777728436 185.70990440447633 M222.35597883230668 235.46828021847938 C221.05022234904368 224.7247835761573, 221.0655161216036 214.50941261329945, 222.3628922385766 186.52508727800333" stroke="rgb(0, 0, 0)" stroke-width="1" fill="none"/><text x="252" y="216" class="id" aria-describedby="desc-8">id13<title id="desc-8">Object id</title></text></g><g><path d="M348.6052187088516 187.07869743749367 L408.9768981285709 184.3707069982032 L410.58999898469693 234.4216225901666 L349.6506904784901 234.15770076454493" stroke="none" stroke-width="0" fill="none"/><path d="M348.3384165074336 186.18841818499524 C368.5798828706104 185.11942325118855, 384.35451604681595 187.99953173015433, 411.2061206228193 187.04519644909232 M350.48413697850947 185.12738169245083 C367.3464663375883 185.8959005815593, 382.4390825498565 186.18148756399054, 410.5089410825049 185.23903888244064 M411.8873552679666 187.7274274451155 C408.89080682941835 202.17648306950946, 410.7527741012613 222.05307261463514, 410.556424133833 237.0437249590313 M409.8474370355642 186.06113918652392 C410.8503675182575 195.5056453588187, 410.2147296125417 206.70323782768938, 409.5394120828565 236.12674319546082 M408.56045582532323 235.77904357594554 C390.1212913740023 237.08155465557743, 370.8591948011432 237.91429939547345, 350.0828989539499 236.9508995030726 M410.5482093793546 236.47650711510963 C395.54832191060035 237.04569284386284, 379.1046804072497 236.13242162312775, 350.0163089855591 236.92422224746804 M350.1911988787513 234.066404990678 C351.0664179780599 224.246472567598, 349.18316332295234 211.22049795875654, 349.8060643045141 186.8066939437107 M349.2350928859629 235.18815681290323 C350.0255695979341 220.78533528970684, 350.0003998727203 207.12921861386724, 349.1888827031211 186.24001556927394" stroke="rgb(0, 0, 0)" stroke-width="1" fill="none"/><text x="380" y="216" class="type" aria-describedby="desc-9">int<title id="desc-9">Object type</title></text></g><text x="316" y="270" class="value" aria-describedby="desc-10">7<title id="desc-10">Value</title></text></g></g><script>
            function enableInteractivity() {

                function buildIdToObjectMap(root) {
                    const map = {};
                    root.querySelectorAll('[data-memory-viz-object-id]').forEach(el =&gt; {
                        const idKey = 'id' + el.getAttribute('data-memory-viz-object-id');
                        if (!map[idKey]) {
                            map[idKey] = [];
                        }
                        map[idKey].push(el.id);
                    });
                    return map;
                }

                const idToObjectMap = buildIdToObjectMap(document);

                function highlightObject(objectId) {
                    const objectBox = document.getElementById(objectId);
                    if (!objectBox) {
                        return;
                    }

                    objectBox.classList.add('highlighted');
                }

                function removeHighlight(objectId) {
                    const objectBox = document.getElementById(objectId);
                    if (!objectBox) {
                        return;
                    }

                    objectBox.classList.remove('highlighted');
                }

                function addEventListeners() {
                    document.querySelectorAll('text.id').forEach(idText =&gt; {
                        const textNode = Array.from(idText.childNodes).find(
                            node =&gt; node.nodeType === Node.TEXT_NODE
                        );
                        const idValue = textNode?.nodeValue?.trim() ?? '';
                        if (!idValue) {
                           return;
                        }

                        idText.addEventListener('mouseover', () =&gt; {
                            const objectIds = idToObjectMap[idValue];
                            if (objectIds) {
                                objectIds.forEach(highlightObject);
                            }
                        });

                        idText.addEventListener('mouseout', () =&gt; {
                            const objectIds = idToObjectMap[idValue];
                            if (objectIds) {
                                objectIds.forEach(removeHighlight);
                            }
                        });
                    });
                }

                addEventListeners();
            }

            // Wait for DOM to be ready
            if (document.readyState === 'loading') {
                document.addEventListener('DOMContentLoaded', enableInteractivity);
            } else {
                enableInteractivity();
            }
        </script></svg>