<svg class="memory-viz-diagram" preserveAspectRatio="xMinYMin meet" style="width:100%;height:100%" width="477.2" height="360" viewBox="0 0 477.2 360" xmlns="http://www.w3.org/2000/svg"><title>Python memory model diagram showing stack frames and objects</title><style>
        .memory-viz-diagram {
        --fade-text-color: rgb(0, 0, 0);
        --hide-text-color: white;

        --highlight-value-text-color: rgb(27, 14, 139);
        --highlight-id-text-color: rgb(150, 100, 28);

        --highlight-box-fill: yellow;
        --highlight-box-line-color: rgb(0, 0, 0);

        --fade-box-fill: rgb(247, 247, 247);
        --fade-box-line-color: gray;

        --hide-box-fill: white;

        --primitive-value-color: rgb(27, 14, 139);
        --id-text-color: rgb(150, 100, 28);
        --default-font-size: 20px;

        --highlight-object-fill: rgba(255, 255, 0, 0.6);
    }

        .memory-viz-diagram text {
            font-family: Consolas, Courier;
            font-size: 20px;
        }
        .memory-viz-diagram text.default {
            fill: rgb(0, 0, 0);
            text-anchor: middle;
        }
        .memory-viz-diagram text.attribute {
            fill: rgb(27, 14, 139);
            text-anchor: start;
        }
        .memory-viz-diagram text.variable {
            fill: rgb(0, 0, 0);
            text-anchor: start;
        }
        .memory-viz-diagram text.id {
            cursor: pointer;
            fill: rgb(150, 100, 28);
            text-anchor: middle;
        }
        .memory-viz-diagram text.type {
            fill: rgb(27, 14, 139);
            text-anchor: middle;
        }
        .memory-viz-diagram text.value {
            fill: rgb(27, 14, 139);
            text-anchor: middle;
        }
        .memory-viz-diagram path {
            stroke: rgb(0, 0, 0);
        }
        .memory-viz-diagram .highlighted path {
            fill: var(--highlight-object-fill) !important;
        }
    </style><g><title>Group of 1 stack frames</title><g role="graphics-object"><title>Stack frame for __main__</title><g id="object-0"><path d="M25.7180567952538 26.600275845890827 L190.35648542141107 23.957445409125796 L190.11162670831757 248.4905678723546 L26.64783749211045 251.11222610108646" stroke="none" stroke-width="0" fill="none"/><path d="M26.84850227789361 23.336750481814526 C67.02460977467142 27.71180446139694, 104.98039008947937 24.954776485609006, 191.44781437257703 23.315204936890012 M25.37316633892369 24.112613481608825 C89.26001419804736 24.540514570276454, 154.0525863549268 25.16542923838449, 191.27191750192293 25.944329485381648 M190.24175634709084 25.48893453607764 C191.04363430469888 81.34270100692797, 190.52889288485585 137.23625782842305, 192.55529087218667 248.44270828514456 M190.80133875324236 25.267902248781603 C191.88354435602432 108.90902814971852, 191.29900900973757 191.25397929587146, 190.73927178762898 250.28054355812463 M189.24851541684362 251.57041070764126 C127.87463695926854 249.3294065380651, 67.53520776631328 249.60733761758715, 23.321389428951157 248.67015768721902 M191.73427809960765 249.93532044367473 C129.95112085448096 251.9137203478584, 66.65221486766343 250.80306441442198, 25.167780446820313 249.55485512817847 M24.88255209771611 249.37857632520323 C23.95185989149484 191.46219132352826, 24.245273514443227 133.1900843296131, 24.016933884997474 26.684557852865225 M25.63507686302251 250.5221419030029 C27.437027647253647 166.69799700008704, 26.063309627657944 81.28907916706432, 24.840493560647527 25.826757918000418" stroke="rgb(0, 0, 0)" stroke-width="1" fill="none"/></g><g><path d="M25.258701184427863 24.96736304472535 L130.18810922173918 23.78657913900648 L129.25111934225978 76.12630220188481 L24.52196012693924 76.11122628752943" stroke="none" stroke-width="0" fill="none"/><path d="M25.748617267781498 24.209277303693675 C53.05866350364367 24.121633846904878, 84.1015595313778 24.9382071858534, 131.97595916163095 23.957953017175267 M25.78448379798019 24.293014615653163 C50.015169855181604 25.393657947426576, 76.72504033577663 25.19327762753552, 131.20285192279795 24.160705377939795 M130.96897240474897 24.022324390632104 C130.15184959847053 36.6336137281889, 129.75420207217132 49.81783059405257, 130.64506634861584 75.9525475305533 M130.22580665808997 24.40566125796578 C130.73073777167133 35.619910325914624, 130.280512351943 45.883603796474354, 130.31989526924247 74.8410039727089 M129.4634945651894 75.89249570186861 C108.77555051087982 74.46267457584763, 86.27708339005837 73.44769704859645, 24.74492933011767 76.8516404675842 M130.66332426330027 75.06223384277956 C104.58502313225684 74.16532913136973, 77.83865039186752 73.92451592626938, 25.01768485399684 75.68747933910953 M26.490911715450135 74.35312689245036 C24.89558273292947 58.12694763212476, 25.582734536963954 40.663775855695114, 25.522855217875577 26.38985479902781 M24.90575519648855 75.84753094802672 C25.092079604871767 56.907022422922665, 25.816241251304653 38.71638037814915, 25.13447472557593 25.417276518075695" stroke="rgb(0, 0, 0)" stroke-width="1" fill="none"/><text x="78" y="55" class="type" aria-describedby="desc-0">__main__<title id="desc-0">Function name</title></text></g><text x="50" y="130" class="variable" aria-describedby="desc-1">s<title id="desc-1">Parameter name</title></text><g><path d="M116.6269254136331 100.82413022873965 L174.66514430603047 98.24178174387183 L174.52437687740775 151.2321736219858 L114.00026103726837 148.55327793530276" stroke="none" stroke-width="0" fill="none"/><path d="M116.60804072739442 101.72914653962778 C137.7092407071704 99.49212510452648, 161.47588520336976 99.89175216989638, 172.84733475471194 101.26469399730674 M116.16554472710344 99.76915206909051 C132.57791369401585 99.67610467701397, 147.56560723808033 99.57567651646735, 173.76938854738884 100.61947359381935 M175.0400077238167 98.57866755193508 C173.32531742606554 119.68259579259279, 175.58969761815086 135.84269760102006, 175.12444787330966 148.08023537510616 M174.07218517690177 100.76953293704766 C173.00220806836597 116.45451781307332, 173.8946158224552 134.54602467364234, 173.18516261066338 150.53814316067204 M172.85112092899647 149.509542122251 C159.76991761844454 148.43047034946923, 141.44169201494847 150.39849221172696, 116.10544834124694 149.23068496919615 M173.2602116798851 149.7619798624308 C162.0128531282178 150.11213041416718, 149.37195712005413 150.09727757737468, 115.63834794536541 150.18644437222707 M114.34298589600284 149.57485010369973 C113.72987711879122 132.61588994551792, 115.35070701438974 115.82858803406417, 117.27634104154615 99.45655541316215 M115.17058853170546 149.7530661265257 C117.40211067751225 135.09960465311764, 115.53567902118026 120.5726247345881, 115.10690263078521 99.55578408944976" stroke="rgb(0, 0, 0)" stroke-width="1" fill="none"/><text x="145" y="130" class="id" aria-describedby="desc-2">id19<title id="desc-2">Parameter value</title></text></g><text x="50" y="205" class="variable" aria-describedby="desc-3">x<title id="desc-3">Parameter name</title></text><g><path d="M116.5463770169201 174.75355245614062 L173.15105324127447 174.3020474515237 L174.9205020071816 225.1679856246123 L116.51015451654895 225.59614303010477" stroke="none" stroke-width="0" fill="none"/><path d="M114.82381859764351 173.30214543895957 C140.58422225460194 174.42920844242582, 162.4428569557569 174.78327993196086, 172.0726581753809 176.38428370058898 M116.56566231403275 174.94586583453835 C130.05968394821306 175.48265790002893, 145.5778311978316 175.65170506841017, 174.50502834092572 174.03443909017378 M175.64875201045533 174.29192190616075 C173.32785313549462 189.18003958172736, 172.44819699377166 206.28270388689637, 172.32373362698806 224.8487868255559 M173.55593871212056 174.47645177542012 C173.416315673765 190.95684305753093, 174.0862534145713 208.35164244807544, 173.1846086585865 224.764327564072 M174.77941112397832 226.43300066893286 C150.64421361856975 225.4078812459148, 131.9035929301621 224.180419754637, 117.91556613451542 223.80451467853234 M173.12675962234408 224.13427285497474 C156.96173879596853 223.87829610684147, 138.96247163702165 225.17955716787833, 115.47955690343281 225.00020729974565 M117.38149580442872 226.75479658833663 C116.40996197784366 212.718918774205, 115.76078661036269 198.9329214280352, 116.66344296892778 176.70708857751254 M115.5726752427031 224.3064672872336 C115.69825973229605 208.79383701283697, 115.62108978693641 193.52582155261646, 116.72835019725608 175.69201362408128" stroke="rgb(0, 0, 0)" stroke-width="1" fill="none"/><text x="145" y="205" class="id" aria-describedby="desc-4">id13<title id="desc-4">Parameter value</title></text></g></g></g><g><title>Group of 2 objects</title><g role="graphics-object"><title>Str id19 with value "David is cool!"</title><g><path d="M217.9722897551046 26.77713419412745 L452.59811591617637 26.974879545410296 L451.3733790263989 154.83964622160647 L215.22200510011442 156.07697725183047" stroke="none" stroke-width="0" fill="none"/><path d="M217.3517426502114 23.37813900298463 C287.55131474495613 24.141719545993062, 362.1921456003111 22.016682349297213, 451.0251967430429 24.349841234068705 M216.13569411833856 25.185385307516462 C285.4194723181196 23.152365630632417, 353.31100652993337 23.23106061017276, 452.6565329365174 25.256709762510308 M453.54757044566026 26.561176384800905 C451.77886718190746 58.28088492725702, 451.76065338092786 89.57573679348988, 453.24055216912035 155.8619530745347 M452.36503201389723 24.55625494919008 C452.13133835764563 71.67519903248775, 451.4848906352871 116.88590475496767, 451.9898600926392 154.68114333921173 M451.3434832464352 155.08501515541403 C364.0735967509321 154.80588487111913, 276.2953415710829 152.2237496914393, 217.33865203553657 156.56666700006107 M452.92648058784374 155.35497889300237 C385.7873416143349 153.4691516924203, 318.4700159172559 154.10575737384855, 215.37572292937733 155.82244241708543 M215.01930329143605 155.58915328419826 C215.48896745605236 116.80934103163573, 214.25189022977614 77.31788081614391, 214.9710793183865 23.999298042517474 M215.38968833476554 154.64566407220244 C217.07291798017908 110.01998862828741, 216.7360485846067 64.10689239577523, 215.1386080180107 25.062789226943195" stroke="rgb(0, 0, 0)" stroke-width="1" fill="none"/></g><g id="object-1" data-memory-viz-object-id="19"><path d="M221.6177114517554 31.10630824087344 L446.0199746019355 30.77811735742685 L445.812488125783 148.7470196798613 L221.7145957977969 149.3018374365622" stroke="none" stroke-width="0" fill="var(--highlight-box-fill)"/><path d="M221.86629498420425 30.856590307035454 C286.685818801185 31.085963334867394, 351.7273424130987 30.634649656924616, 445.87409808042463 30.658222132236663 M221.86234286036992 31.119625843993642 C271.0769469721434 31.168346743897594, 320.1549540829786 31.308101555055178, 446.2870867686981 30.958091269153933 M446.04373173077533 30.631575754226812 C446.4754416712501 74.58575851314622, 446.02280000006357 118.59405751413051, 446.2654125631402 149.38122232988948 M446.1540850905387 31.05079261879493 C446.1972685068939 59.997875489879924, 445.9749013161309 88.63164111059841, 446.3917622895506 148.9578645171811 M445.96694207306285 149.23663939463822 C382.6988159535732 149.05380028407995, 318.9551244396545 148.90658575120614, 222.08161877314342 149.20455470719003 M446.1623659248803 148.85948517987458 C386.1576200050697 148.6199177699922, 326.04775496060785 148.90152266205305, 222.1564053891762 149.03467254622782 M222.2171075634268 149.38340991228355 C222.17932115479843 103.33320105548884, 222.27394747157368 58.84337675032443, 222.3923776391855 31.246212843781528 M222.02074770162554 148.89543975143644 C221.99272868523948 112.28196129001806, 221.93408199588544 75.56188855083657, 221.83971621358722 30.832088295171356" stroke="var(--highlight-box-line-color)" stroke-width="4" fill="none"/></g><g><path d="M222.14836125945303 31.358571799387942 L284.79105283055225 30.687674291273648 L284.8792954416751 80.67088218480248 L221.85880468976725 80.84524298087562" stroke="none" stroke-width="0" fill="none"/><path d="M221.77504372131807 31.047597710459193 C236.28775300211592 30.9750718730858, 250.19263885512535 31.323318807272145, 285.0707967650445 31.27546739533624 M221.96036678293655 31.139517214640072 C235.87918273062348 30.931299355197904, 249.62200070276242 30.760151782715987, 284.995215130056 30.86895984814143 M284.53682852941284 30.80385220322404 C284.825454997062 51.01903939490814, 284.39361861315365 70.74134543086116, 285.1917105304271 80.9209736756781 M284.9441517893378 31.152065815074135 C284.96751464269346 43.599352630335744, 284.8398906815866 56.609593694085106, 284.706076645234 80.89471811428221 M284.8422230266585 80.83162311427466 C265.38756482031386 80.6472901779553, 245.37562112232794 80.65832836546846, 222.20114771163156 80.7312639167362 M284.8047237893901 80.88979429486197 C266.4129039653134 81.05684483931229, 247.94154085327784 81.06466045880389, 222.08570637596446 80.859908376172 M221.80872356414017 80.73062815518314 C221.94130531089925 64.54885732508352, 221.73544811970308 47.5859897896341, 221.60645937141976 30.613620499675772 M221.83500204983235 80.93537828802857 C221.98213542361074 63.865942326298665, 222.01215071472936 46.874714879525534, 222.06435234091435 31.014072452834384" stroke="var(--highlight-box-line-color)" stroke-width="4" fill="none"/><text x="253.4" y="61" style="font-weight:bolder; font-size:22px; fill:var(--highlight-id-text-color); " class="id" aria-describedby="desc-5">id19<title id="desc-5">Object id</title></text></g><g><path d="M385.82626860827924 31.262591332492647 L446.20082372283144 30.649261127236716 L446.18630723510586 80.66048921608352 L386.13002328923716 80.71574481717713" stroke="none" stroke-width="0" fill="none"/><path d="M386.4529993127976 30.90631506524646 C399.52615447960517 30.727915340007964, 412.91197156156005 30.989517015871385, 446.4734373586919 31.314351337240115 M386.29391662101006 30.963638409837024 C404.9685532364005 30.827157657106156, 423.34021337974934 30.994883648342125, 446.1797388062408 31.130229540030502 M446.23898588333157 30.70334592528835 C445.856124146418 49.98246641390471, 446.4209124546521 68.7373709904832, 446.0756631219794 81.17272058994295 M446.3622119007925 31.068185090987285 C446.1003184463247 46.841091103032326, 446.02646888753264 62.20483762799782, 446.3149711606129 81.15707970583047 M446.14770680208204 80.74503254924149 C430.6877969119332 80.6693022244312, 414.1052370195535 81.37419258491113, 386.1660884428723 80.79378601877004 M446.1963722968553 80.93932551889596 C428.3442120990489 81.21982769093387, 410.0649998448362 81.23020723620678, 386.25684458945244 80.82193323386822 M386.332944677132 80.8490682714075 C385.9003094464006 63.7244255693154, 386.0097101924236 46.33365223224938, 386.0944466160454 31.327992264396713 M386.0268217850088 80.86486379104215 C386.134525249369 66.18221916300112, 386.06459992068756 51.06618732193425, 386.08539562261774 30.96979780418375" stroke="var(--highlight-box-line-color)" stroke-width="4" fill="none"/><text x="416.2" y="61" style="font-weight:bolder; font-size:22px; fill:var(--highlight-value-text-color); " class="type" aria-describedby="desc-6">str<title id="desc-6">Object type</title></text></g><text x="334.1" y="115" style="font-weight:bolder; font-size:22px; fill:var(--highlight-value-text-color); " class="value" aria-describedby="desc-7">"David is cool!"<title id="desc-7">Value</title></text></g><g role="graphics-object"><title>Int id13 with value 7</title><g><path d="M216.6316896478571 180.16887055151443 L415.8277417837741 181.5964546652636 L416.4177236714049 308.9917112662197 L214.40464627025463 311.68426694970276" stroke="none" stroke-width="0" fill="none"/><path d="M217.46701518319517 181.30390730142162 C281.57263701187367 180.05032054246277, 346.91390251274623 182.51435654012394, 416.74559430643774 180.2652301120601 M216.39885892870186 180.51519095276535 C288.2496432445623 181.25549707941198, 359.81132998238513 181.126325830166, 415.5419456924983 180.84885610642144 M415.38399417986534 178.71904519083267 C413.56778115929563 232.26231055789862, 415.7006356658003 279.98008777994386, 417.95330393370324 308.78468503103375 M415.30043105637094 180.12414096466657 C416.3202354722756 219.6126245619043, 414.70381128221396 259.81996175596316, 415.59608370698845 309.8815677596643 M415.4836671755903 308.2422000529052 C337.9452635059421 309.3309041654158, 259.59877954478384 310.52024730104995, 216.01249547061946 309.2014134511267 M416.876522979619 310.68258003527103 C340.2299398109678 309.1904953027341, 262.0603437339312 309.25798052453126, 215.56294478890175 309.1201979792098 M217.55554272394824 310.87552838883227 C215.823947070675 261.0118014554293, 218.1379757713864 208.99313534874005, 216.32965299586562 180.66423513070103 M215.55972213912844 310.7207952828436 C214.80365850632003 265.6909874791938, 214.8220446541661 221.43017325884398, 216.06708225761855 179.169048421861" stroke="rgb(0, 0, 0)" stroke-width="1" fill="none"/></g><g id="object-2" data-memory-viz-object-id="13"><path d="M221.7128864375329 185.12358712486787 L411.15951627541386 184.29944020316987 L408.14549627958445 304.2307994749912 L223.2473813451361 304.7631306383369" stroke="none" stroke-width="0" fill="none"/><path d="M222.7121530289733 186.03640289390253 C279.8815447577793 186.50159919121205, 339.03008690277835 187.79367049370157, 410.41596039081145 187.96271030644928 M221.05877243376685 185.4124855287941 C272.7640182021213 186.34380040897722, 325.4443339986128 186.64803378868768, 409.65835121847874 185.56556653673425 M411.3342329612229 184.4348056210834 C407.6273665541284 232.06218652678595, 410.24285841726345 278.59666343007314, 408.29745713200464 304.6151389319816 M409.70137386988256 185.53457064896145 C411.19147283866994 223.35278953515407, 410.1891331768146 257.7326912756544, 410.53427853698264 303.16036172581437 M408.5383993436899 303.89977332934467 C357.3460279120036 303.94271418959426, 303.05874909739515 303.9966713184508, 223.03770481586636 304.7662442704679 M409.12634087075975 303.71271567509206 C350.66300735323 303.8023121752399, 291.6277240557867 304.9372128581186, 221.76345948995137 303.88082978980634 M220.71901550185206 304.26787378595566 C223.307306892856 258.5709858725868, 223.94413967926081 213.09683301657697, 223.22023501900935 185.2697896862093 M222.47060519613973 303.7538368117662 C221.46844906249902 278.92261169108167, 220.21936616556087 253.3118837485451, 222.09589340812835 186.67209166563646" stroke="rgb(0, 0, 0)" stroke-width="1" fill="none"/></g><g><path d="M221.79123117906752 186.75040798845313 L282.79685756630306 186.5217426486571 L281.93869039329013 235.97049266736826 L223.46788829564267 236.48948537696944" stroke="none" stroke-width="0" fill="none"/><path d="M222.37933963696577 187.03162263577664 C241.592335100516 184.80528756470719, 259.71840672509376 184.87522895263228, 281.87800817764787 187.61836410223316 M222.3854213507699 185.13790539712932 C239.92824520686355 186.90286753688682, 258.37180954310446 185.8849482105918, 282.2486186074839 186.47545607881648 M280.28902638419316 185.1884818002119 C283.21425321087037 196.4279482638734, 280.712929308828 210.62776703984431, 282.7373891063887 235.55113385887213 M281.69840427921775 186.24839808103803 C281.70155234082813 200.89187168823273, 282.6838332073195 213.9212521901438, 281.0490331431526 236.5596794511492 M283.23584040208976 236.57910872768608 C264.2361219571661 237.20980121244247, 248.47375312255204 237.7641118672493, 221.56126912551028 236.20672802714626 M281.1630729769732 235.38580892503325 C266.1953378419487 236.4941217162033, 249.72895084614234 235.7064381906134, 222.89877436470744 235.58770295219844 M223.67534063769523 235.13515167827936 C221.64886085251467 215.81034248267903, 222.7856563584996 199.30204309094898, 223.2115668810226 185.43169125653654 M222.3214770470387 236.2650128700601 C221.22420303494002 220.60651189718516, 221.75988588115936 202.715533126193, 221.26226670355877 185.74631389304082" stroke="rgb(0, 0, 0)" stroke-width="1" fill="none"/><text x="252" y="216" class="id" aria-describedby="desc-8">id13<title id="desc-8">Object id</title></text></g><g><path d="M351.5447544154326 185.3923610042136 L409.0860571828714 184.10218958946498 L410.49816077373043 236.67543992832177 L349.8338137893487 235.74899372744179" stroke="none" stroke-width="0" fill="none"/><path d="M349.73391578079315 185.6140877576127 C367.4790594861325 185.9112224736096, 388.58167902526117 185.3320998015774, 410.42859844841524 186.23542707655758 M349.17098624275127 186.84426891253966 C371.6705517072569 185.4766676669881, 394.07489032930096 186.59378831162533, 410.87002084746746 186.73175882983847 M410.1313244868819 187.21357033922155 C409.2072485119119 204.1750906617987, 409.81479346540783 216.4336147455909, 411.25914409654376 234.83040845186426 M409.4925358803598 185.76458442290922 C409.37189938570367 201.2162965034408, 410.69537799334563 217.13683477236395, 409.26002336475466 236.8707044829554 M408.05634474335574 236.6003624428149 C397.2971656904043 236.03302142128348, 385.3780942109627 237.15209660518462, 351.2979019353387 236.3759784121189 M410.4557481311928 236.92851657519472 C393.8316321306769 235.73621981141298, 376.12218205257307 236.43893236797996, 350.13420336719264 235.8626862276006 M351.121384263159 235.27602365430192 C350.6633716433898 224.94066917628584, 349.87473614729464 212.8953450111615, 351.39788032812737 187.35397443114203 M350.10998446600087 235.26989008256575 C349.4485725790761 217.1147957324672, 351.06022671067524 199.40693573789335, 349.47564791115207 185.13998771144173" stroke="rgb(0, 0, 0)" stroke-width="1" fill="none"/><text x="380" y="216" class="type" aria-describedby="desc-9">int<title id="desc-9">Object type</title></text></g><text x="316" y="270" class="value" aria-describedby="desc-10">7<title id="desc-10">Value</title></text></g></g><script>
            function enableInteractivity() {

                function buildIdToObjectMap(root) {
                    const map = {};
                    root.querySelectorAll('g[data-memory-viz-object-id]').forEach(el =&gt; {
                        const idKey = 'id' + el.getAttribute('data-memory-viz-object-id');
                        if (!map[idKey]) {
                            map[idKey] = [];
                        }
                        map[idKey].push(el.id);
                    });
                    return map;
                }

                const idToObjectMap = buildIdToObjectMap(document);

                function highlightObject(objectId) {
                    const objectBox = document.getElementById(objectId);
                    if (!objectBox) {
                        return;
                    }

                    objectBox.classList.add('highlighted');
                }

                function removeHighlight(objectId) {
                    const objectBox = document.getElementById(objectId);
                    if (!objectBox) {
                        return;
                    }

                    objectBox.classList.remove('highlighted');
                }

                function addEventListeners() {
                    document.querySelectorAll('text.id').forEach(idText =&gt; {
                        const textNode = Array.from(idText.childNodes).find(
                            node =&gt; node.nodeType === Node.TEXT_NODE
                        );
                        const idValue = textNode?.nodeValue?.trim() ?? '';
                        if (!idValue) {
                           return;
                        }

                        idText.addEventListener('mouseover', () =&gt; {
                            const objectIds = idToObjectMap[idValue];
                            if (objectIds) {
                                objectIds.forEach(highlightObject);
                            }
                        });

                        idText.addEventListener('mouseout', () =&gt; {
                            const objectIds = idToObjectMap[idValue];
                            if (objectIds) {
                                objectIds.forEach(removeHighlight);
                            }
                        });
                    });
                }

                addEventListeners();
            }

            // Wait for DOM to be ready
            if (document.readyState === 'loading') {
                document.addEventListener('DOMContentLoaded', enableInteractivity);
            } else {
                enableInteractivity();
            }
        </script></svg>